<svg width="24" height="24" viewBox="0 0 24 24" fill="none" xmlns="http://www.w3.org/2000/svg">
<path fill-rule="evenodd" clip-rule="evenodd" d="M3.58579 3.58579C3 4.17157 3 5.11438 3 7V17C3 18.8856 3 19.8284 3.58579 20.4142C4.17157 21 5.11438 21 7 21H17C18.8856 21 19.8284 21 20.4142 20.4142C21 19.8284 21 18.8856 21 17V7C21 5.11438 21 4.17157 20.4142 3.58579C19.8284 3 18.8856 3 17 3H7C5.11438 3 4.17157 3 3.58579 3.58579ZM16.1708 8.50377L10.7947 14.1327L8.16275 11.377C7.83959 11.0386 7.31565 11.0386 6.99249 11.377C6.66933 11.7153 6.66933 12.2639 6.99249 12.6023L10.7947 16.5833L17.3411 9.72907C17.6642 9.39071 17.6642 8.84212 17.3411 8.50377C17.0179 8.16541 16.494 8.16541 16.1708 8.50377Z" fill="#0A95A0"/>
</svg>
