<svg width="24" height="24" viewBox="0 0 24 24" fill="none" xmlns="http://www.w3.org/2000/svg">
    <path fill-rule="evenodd" clip-rule="evenodd"
        d="M9.67662 4.22991C9.82347 4.08123 10.02 4 10.2222 4H13.7778C13.98 4 14.1765 4.08123 14.3234 4.22991C14.4706 4.37901 14.5555 4.58385 14.5555 4.8V5.6H9.44444V4.8C9.44444 4.58385 9.52936 4.37901 9.67662 4.22991ZM7.44444 5.6V4.8C7.44444 4.06137 7.73412 3.35054 8.25365 2.82451C8.7736 2.29806 9.48147 2 10.2222 2H13.7778C14.5185 2 15.2264 2.29806 15.7463 2.82451C16.2659 3.35054 16.5555 4.06137 16.5555 4.8V5.6L20 5.6C20.5523 5.6 21 6.04771 21 6.6C21 7.15228 20.5523 7.6 20 7.6H19.2222V19.2C19.2222 19.9386 18.9325 20.6495 18.413 21.1755C17.8931 21.7019 17.1852 22 16.4444 22H7.55555C6.8148 22 6.10694 21.7019 5.58699 21.1755C5.06745 20.6495 4.77777 19.9386 4.77777 19.2V7.6H4C3.44772 7.6 3 7.15228 3 6.6C3 6.04771 3.44772 5.6 4 5.6L7.44444 5.6ZM6.77777 19.2V7.6H17.2222V19.2C17.2222 19.4162 17.1373 19.621 16.99 19.7701C16.8432 19.9188 16.6467 20 16.4444 20H7.55555C7.35331 20 7.1568 19.9188 7.00995 19.7701C6.86269 19.621 6.77777 19.4162 6.77777 19.2Z"
        fill="#404243" />
</svg>
