<svg width="24" height="24" viewBox="0 0 24 24" fill="none" xmlns="http://www.w3.org/2000/svg">
<path fill-rule="evenodd" clip-rule="evenodd" d="M6.66667 2C5.95942 2 5.28115 2.28734 4.78105 2.7988C4.28095 3.31026 4 4.00396 4 4.72727V19.2727C4 19.996 4.28095 20.6897 4.78105 21.2012C5.28115 21.7127 5.95942 22 6.66667 22H17.3333C18.0406 22 18.7189 21.7127 19.219 21.2012C19.719 20.6897 20 19.996 20 19.2727V8.37076L20 8.36364C20 8.11048 19.8989 7.8815 19.7356 7.71667L14.4105 2.27054C14.2493 2.10352 14.0254 2 13.7778 2H13.7778H6.66667ZM12.8889 3.81818H6.66667C6.43092 3.81818 6.20483 3.91396 6.03813 4.08445C5.87143 4.25494 5.77778 4.48617 5.77778 4.72727V19.2727C5.77778 19.5138 5.87143 19.7451 6.03813 19.9156C6.20483 20.086 6.43092 20.1818 6.66667 20.1818H17.3333C17.5691 20.1818 17.7952 20.086 17.9619 19.9156C18.1286 19.7451 18.2222 19.5138 18.2222 19.2727V9.27273H13.7778C13.2869 9.27273 12.8889 8.86571 12.8889 8.36364V3.81818ZM16.9651 7.45455L14.6667 5.10386V7.45455H16.9651ZM8.44446 12.9091C8.44446 12.407 8.84243 12 9.33335 12H14.6667C15.1576 12 15.5556 12.407 15.5556 12.9091C15.5556 13.4112 15.1576 13.8182 14.6667 13.8182H9.33335C8.84243 13.8182 8.44446 13.4112 8.44446 12.9091ZM9.33335 15.6364C8.84243 15.6364 8.44446 16.0434 8.44446 16.5455C8.44446 17.0475 8.84243 17.4545 9.33335 17.4545H14.6667C15.1576 17.4545 15.5556 17.0475 15.5556 16.5455C15.5556 16.0434 15.1576 15.6364 14.6667 15.6364H9.33335Z" fill="#404243"/>
</svg>
