<svg width="24" height="24" viewBox="0 0 24 24" fill="none" xmlns="http://www.w3.org/2000/svg">
<path fill-rule="evenodd" clip-rule="evenodd" d="M18.4676 4.26292C18.6359 4.09458 18.8643 4 19.1023 4C19.3404 4 19.5687 4.09458 19.7371 4.26292C19.9054 4.43127 20 4.6596 20 4.89768C20 5.13576 19.9054 5.36408 19.7371 5.53243L11.4345 13.835L9.74182 14.2582L10.165 12.5655L18.4676 4.26292ZM19.1023 2C18.3338 2 17.5968 2.30529 17.0534 2.84871L8.55492 11.3472C8.42676 11.4753 8.33584 11.6359 8.29188 11.8117L7.39731 15.39C7.31212 15.7308 7.41197 16.0913 7.66035 16.3397C7.90873 16.588 8.26921 16.6879 8.60999 16.6027L12.1883 15.7081C12.3641 15.6642 12.5247 15.5733 12.6529 15.4451L21.1513 6.94664C21.6947 6.40322 22 5.66619 22 4.89768C22 4.12916 21.6947 3.39213 21.1513 2.84871C20.6079 2.30529 19.8708 2 19.1023 2ZM4.78915 3.89767C4.04942 3.89767 3.33999 4.19153 2.81692 4.7146C2.29386 5.23766 2 5.94709 2 6.68682V19.2108C2 19.9506 2.29386 20.66 2.81692 21.1831C3.33999 21.7061 4.04942 22 4.78915 22H17.3132C18.0529 22 18.7623 21.7061 19.2854 21.1831C19.8085 20.66 20.1023 19.9506 20.1023 19.2108V12.9488C20.1023 12.3966 19.6546 11.9488 19.1023 11.9488C18.55 11.9488 18.1023 12.3966 18.1023 12.9488V19.2108C18.1023 19.4201 18.0192 19.6209 17.8712 19.7689C17.7232 19.9169 17.5225 20 17.3132 20H4.78915C4.57985 20 4.37913 19.9169 4.23114 19.7689C4.08314 19.6209 4 19.4201 4 19.2108V6.68682C4 6.47753 4.08314 6.2768 4.23114 6.12881C4.37913 5.98082 4.57985 5.89767 4.78915 5.89767H11.0512C11.6034 5.89767 12.0512 5.44996 12.0512 4.89767C12.0512 4.34539 11.6034 3.89767 11.0512 3.89767H4.78915Z" fill="#404243"/>
</svg>
