<svg width="104" height="104" viewBox="0 0 104 104" fill="none" xmlns="http://www.w3.org/2000/svg">
<circle opacity="0.24" cx="52" cy="52" r="52" fill="#F1C1C4"/>
<path d="M52 52.8333C53.9778 52.8333 55.9112 52.2468 57.5557 51.148C59.2002 50.0491 60.4819 48.4874 61.2388 46.6601C61.9957 44.8328 62.1937 42.8222 61.8079 40.8824C61.422 38.9425 60.4696 37.1607 59.0711 35.7622C57.6725 34.3637 55.8907 33.4113 53.9509 33.0254C52.0111 32.6396 50.0004 32.8376 48.1732 33.5945C46.3459 34.3513 44.7841 35.6331 43.6853 37.2776C42.5865 38.922 42 40.8554 42 42.8333C42.0026 45.4846 43.0571 48.0266 44.9319 49.9014C46.8066 51.7762 49.3486 52.8306 52 52.8333Z" fill="#C1282D"/>
<path d="M52 54.5C47.8022 54.5049 43.7778 56.1746 40.8095 59.1428C37.8412 62.1111 36.1715 66.1356 36.1667 70.3333C36.1667 70.5543 36.2545 70.7663 36.4107 70.9226C36.567 71.0789 36.779 71.1667 37 71.1667H67C67.221 71.1667 67.433 71.0789 67.5893 70.9226C67.7455 70.7663 67.8333 70.5543 67.8333 70.3333C67.8285 66.1356 66.1588 62.1111 63.1905 59.1428C60.2222 56.1746 56.1978 54.5049 52 54.5Z" fill="#C1282D"/>
</svg>
