<svg width="80" height="80" viewBox="0 0 80 80" fill="none" xmlns="http://www.w3.org/2000/svg">
<path opacity="0.24" d="M80 40C80 17.9086 62.0914 2.39717e-05 40 3.07141e-05C17.9086 3.74565e-05 -2.7141e-06 17.9086 -1.74845e-06 40C-7.8281e-07 62.0914 17.9086 80 40 80C62.0914 80 80 62.0914 80 40Z" fill="#DDDEDE"/>
<path fill-rule="evenodd" clip-rule="evenodd" d="M32.1111 23.3335C30.9324 23.3335 29.8019 23.8124 28.9684 24.6648C28.1349 25.5173 27.6667 26.6734 27.6667 27.879V52.1214C27.6667 53.3269 28.1349 54.4831 28.9684 55.3355C29.8019 56.1879 30.9324 56.6668 32.1111 56.6668H49.8889C51.0676 56.6668 52.1981 56.1879 53.0316 55.3355C53.8651 54.4831 54.3333 53.3269 54.3333 52.1214V33.9521C54.3334 33.9479 54.3334 33.9437 54.3334 33.9396C54.3334 33.5173 54.1645 33.1354 53.892 32.8607L45.0176 23.7846C44.749 23.5061 44.3757 23.3335 43.963 23.3335C43.963 23.3335 43.963 23.3335 43.963 23.3335H32.1111ZM42.4815 26.3638H32.1111C31.7182 26.3638 31.3414 26.5234 31.0635 26.8076C30.7857 27.0917 30.6296 27.4771 30.6296 27.879V52.1214C30.6296 52.5232 30.7857 52.9086 31.0635 53.1927C31.3414 53.4769 31.7182 53.6365 32.1111 53.6365H49.8889C50.2818 53.6365 50.6586 53.4769 50.9364 53.1927C51.2143 52.9086 51.3704 52.5232 51.3704 52.1214V35.4547H43.963C43.1448 35.4547 42.4815 34.7764 42.4815 33.9396V26.3638ZM49.2752 32.4244L45.4445 28.5066V32.4244H49.2752Z" fill="#888B8D"/>
</svg>
