<svg width="24" height="24" viewBox="0 0 24 24" fill="none" xmlns="http://www.w3.org/2000/svg">
<path fill-rule="evenodd" clip-rule="evenodd" d="M4.80007 3C5.40758 3 5.90007 3.48048 5.90007 4.07318V10.083C5.90007 10.6757 5.40758 11.1561 4.80007 11.1561C4.19255 11.1561 3.70006 10.6757 3.70006 10.083V4.07318C3.70006 3.48048 4.19255 3 4.80007 3ZM5.90007 14.5903H7.50003C8.10754 14.5903 8.60003 14.1098 8.60003 13.5171C8.60003 12.9244 8.10754 12.4439 7.50003 12.4439H4.80007H2.1C1.49249 12.4439 1 12.9244 1 13.5171C1 14.1098 1.49249 14.5903 2.1 14.5903H3.70006V19.5269C3.70006 20.1196 4.19255 20.6001 4.80007 20.6001C5.40758 20.6001 5.90007 20.1196 5.90007 19.5269V14.5903ZM13.1001 11.8C13.1001 11.2073 12.6076 10.7269 12 10.7269C11.3925 10.7269 10.9 11.2073 10.9 11.8V19.5269C10.9 20.1196 11.3925 20.6001 12 20.6001C12.6076 20.6001 13.1001 20.1196 13.1001 19.5269V11.8ZM12 3C12.6076 3 13.1001 3.48048 13.1001 4.07318V7.2927H14.7C15.3075 7.2927 15.8 7.77317 15.8 8.36587C15.8 8.95857 15.3075 9.43905 14.7 9.43905H12.003L12 9.43905L11.9971 9.43905H9.29999C8.69247 9.43905 8.19998 8.95857 8.19998 8.36587C8.19998 7.77317 8.69247 7.2927 9.29999 7.2927H10.9V4.07318C10.9 3.48048 11.3925 3 12 3ZM19.2 14.161H21.9C22.5075 14.161 23 14.6415 23 15.2342C23 15.8269 22.5075 16.3074 21.9 16.3074H20.3V19.5269C20.3 20.1196 19.8075 20.6001 19.2 20.6001C18.5925 20.6001 18.1 20.1196 18.1 19.5269V16.3074H16.5C15.8925 16.3074 15.4 15.8269 15.4 15.2342C15.4 14.6415 15.8925 14.161 16.5 14.161H19.2ZM19.2 3C19.8075 3 20.3 3.48048 20.3 4.07318V11.8C20.3 12.3927 19.8075 12.8732 19.2 12.8732C18.5925 12.8732 18.1 12.3927 18.1 11.8V4.07318C18.1 3.48048 18.5925 3 19.2 3Z" fill="white"/>
</svg>
