<svg width="40" height="40" viewBox="0 0 40 40" fill="none" xmlns="http://www.w3.org/2000/svg">
<path fill-rule="evenodd" clip-rule="evenodd" d="M20.0458 18.3338C20.0306 18.3339 20.0154 18.3339 20.0002 18.3339C19.9849 18.3339 19.9697 18.3339 19.9545 18.3338C19.9697 18.3339 19.9849 18.334 20.0002 18.334C20.0154 18.334 20.0306 18.3339 20.0458 18.3338ZM29.1668 12.5007C29.1668 16.9964 25.9303 20.7363 21.6602 21.5174C21.6646 21.5668 21.6668 21.6168 21.6668 21.6674V35.0007C21.6668 35.9212 20.9206 36.6674 20.0002 36.6674C19.0797 36.6674 18.3335 35.9212 18.3335 35.0007V21.6674C18.3335 21.6168 18.3357 21.5668 18.3402 21.5174C14.07 20.7363 10.8335 16.9964 10.8335 12.5007C10.8335 7.43804 14.9376 3.33398 20.0002 3.33398C25.0628 3.33398 29.1668 7.43804 29.1668 12.5007Z" fill="#0A95A0"/>
</svg>
