<svg width="24" height="24" viewBox="0 0 24 24" fill="none" xmlns="http://www.w3.org/2000/svg">
<path fill-rule="evenodd" clip-rule="evenodd" d="M11.553 2.10557C11.8346 1.96481 12.1659 1.96481 12.4475 2.10557L21.4475 6.60557C21.7862 6.77496 22.0002 7.12123 22.0002 7.5C22.0002 7.87877 21.7862 8.22504 21.4475 8.39443L12.4475 12.8944C12.1659 13.0352 11.8346 13.0352 11.553 12.8944L2.55303 8.39443C2.21425 8.22504 2.00024 7.87877 2.00024 7.5C2.00024 7.12123 2.21425 6.77496 2.55303 6.60557L11.553 2.10557ZM5.23631 7.5L12.0002 10.882L18.7642 7.5L12.0002 4.11803L5.23631 7.5ZM2.10579 16.0528C2.35278 15.5588 2.95345 15.3586 3.44743 15.6056L12.0002 19.882L20.553 15.6056C21.047 15.3586 21.6477 15.5588 21.8946 16.0528C22.1416 16.5468 21.9414 17.1474 21.4474 17.3944L12.4474 21.8944C12.1659 22.0352 11.8345 22.0352 11.553 21.8944L2.55301 17.3944C2.05903 17.1474 1.8588 16.5468 2.10579 16.0528ZM3.44743 11.1056C2.95345 10.8586 2.35278 11.0588 2.10579 11.5528C1.8588 12.0468 2.05903 12.6474 2.55301 12.8944L11.553 17.3944C11.8345 17.5352 12.1659 17.5352 12.4474 17.3944L21.4474 12.8944C21.9414 12.6474 22.1416 12.0468 21.8946 11.5528C21.6477 11.0588 21.047 10.8586 20.553 11.1056L12.0002 15.382L3.44743 11.1056Z" fill="#404243"/>
</svg>
